HIERARCHY
ROOT root
{
	OFFSET	0	13.1	24.9
	CHANNELS 6  Xposition Yposition Zposition Xrotation Yrotation Zrotation
	JOINT spine_1
	{
		OFFSET	0	9.99999	0
		CHANNELS 3  Xrotation Yrotation Zrotation
		JOINT spine_2
		{
			OFFSET	0	112	-10
			CHANNELS 3  Xrotation Yrotation Zrotation
			JOINT spine_3
			{
				OFFSET	0	206.5	19.3
				CHANNELS 3  Xrotation Yrotation Zrotation
				JOINT spine_4
				{
					OFFSET	0	110.4	14.6
					CHANNELS 3  Xrotation Yrotation Zrotation
					JOINT neck_1
					{
						OFFSET	0	71.8	-50.3
						CHANNELS 3  Xrotation Yrotation Zrotation
						JOINT neck_2
						{
							OFFSET	0	86.2	-25.8
							CHANNELS 3  Xrotation Yrotation Zrotation
							JOINT head_ee
							{
								OFFSET	0	179.8	-8.7
								CHANNELS 3  Xrotation Yrotation Zrotation
								End Site
								{
									OFFSET	1	0	0
								}
							}
						}
					}
					JOINT left_clavicle
					{
						OFFSET	-43.2	22.4	-70.8
						CHANNELS 3  Xrotation Yrotation Zrotation
						JOINT left_shoulder
						{
							OFFSET	-93.9	-5.79999	48.7
							CHANNELS 3  Xrotation Yrotation Zrotation
							JOINT left_elbow
							{
								OFFSET	-291.4	-30.8	15.2
								CHANNELS 3  Xrotation Yrotation Zrotation
								JOINT left_lowarm_twist
								{
									OFFSET	-110.7	-3.89999	13.6
									CHANNELS 3  Xrotation Yrotation Zrotation
									JOINT left_hand
									{
										OFFSET	-110.7	-3.89999	13.6
										CHANNELS 3  Xrotation Yrotation Zrotation
										JOINT left_ee
										{
											OFFSET	-80.8	-5.10001	12.1
											CHANNELS 3  Xrotation Yrotation Zrotation
											End Site
											{
												OFFSET	1	0	0
											}
										}
									}
								}
							}
						}
					}
					JOINT right_clavicle
					{
						OFFSET	43.2	22.4	-70.8
						CHANNELS 3  Xrotation Yrotation Zrotation
						JOINT right_shoulder
						{
							OFFSET	93.9	-5.79999	48.7
							CHANNELS 3  Xrotation Yrotation Zrotation
							JOINT right_elbow
							{
								OFFSET	291.4	-30.8	15.2
								CHANNELS 3  Xrotation Yrotation Zrotation
								JOINT right_lowarm_twist
								{
									OFFSET	110.7	-3.89999	13.6
									CHANNELS 3  Xrotation Yrotation Zrotation
									JOINT right_hand
									{
										OFFSET	110.7	-3.89999	13.6
										CHANNELS 3  Xrotation Yrotation Zrotation
										JOINT right_ee
										{
											OFFSET	80.8	-5.10001	12.1
											CHANNELS 3  Xrotation Yrotation Zrotation
											End Site
											{
												OFFSET	1	0	0
											}
										}
									}
								}
							}
						}
					}
				}
			}
		}
	}
	JOINT left_hip
	{
		OFFSET	-82.8	-127.5	0.300001
		CHANNELS 3  Xrotation Yrotation Zrotation
		JOINT left_knee
		{
			OFFSET	-28.2	-396.7	2.2
			CHANNELS 3  Xrotation Yrotation Zrotation
			JOINT left_ankle
			{
				OFFSET	-11.7	-411.3	35.4
				CHANNELS 3  Xrotation Yrotation Zrotation
				JOINT left_toes
				{
					OFFSET	0	-60	-88.6
					CHANNELS 3  Xrotation Yrotation Zrotation
					JOINT left_foot_ee
					{
						OFFSET	-22.5	-16.5	-42.2
						CHANNELS 3  Xrotation Yrotation Zrotation
						End Site
						{
							OFFSET	1	0	0
						}
					}
				}
			}
		}
	}
	JOINT right_hip
	{
		OFFSET	82.8	-127.5	0.300001
		CHANNELS 3  Xrotation Yrotation Zrotation
		JOINT right_knee
		{
			OFFSET	28.2	-396.7	2.2
			CHANNELS 3  Xrotation Yrotation Zrotation
			JOINT right_ankle
			{
				OFFSET	11.7	-411.3	35.4
				CHANNELS 3  Xrotation Yrotation Zrotation
				JOINT right_toes
				{
					OFFSET	0	-60	-88.6
					CHANNELS 3  Xrotation Yrotation Zrotation
					JOINT right_foot_ee
					{
						OFFSET	22.5	-16.5	-42.2
						CHANNELS 3  Xrotation Yrotation Zrotation
						End Site
						{
							OFFSET	1	0	0
						}
					}
				}
			}
		}
	}
}
MOTION
Frames: 5
Frame Time: 0.02
324.923 738.996 -674.72 -179.513 -47.6391 179.432 -1.50401 0.549659 0.402258 -1.50407 0.522949 0.436419 -1.49996 0.405373 0.547366 -1.50005 0.486731 0.476477 -16.8575 16.728 12.5903 -17.0767 25.1419 17.8739 -0.0 0.0 -0.0 8.9408 -28.0456 16.2803 -10.919 6.35912 68.3382 0.228466 -6.45717 0.0128877 -67.8429 -6.27108 5.27769 -6.52517 3.33048 -47.1242 -0.0 0.0 -0.0 8.81591 23.5849 -16.4665 24.4528 -15.092 -60.1236 0.172381 4.88092 -0.00734685 6.28108 -0.178579 0.78205 2.87308 -30.2338 -28.2547 0.0 0.0 0.0 -4.32378 20.8247 5.63422 2.18716 -0.0962257 -0.321798 20.7514 25.9007 -2.98273 -28.6455 0.0 0.0 -0.0 0.0 -0.0 21.5176 31.6161 -4.79831 -26.3039 -0.167798 -3.99779 -3.33836 18.4686 -0.55239 -23.802 0.0 0.0 0.0 0.0 0.0 
326.892 735.376 -674.766 -179.838 -46.9376 179.506 -1.44941 0.564684 0.265429 -1.44954 0.546649 0.300824 -1.44665 0.46075 0.420751 -1.44652 0.521417 0.342703 -17.0677 16.9387 11.7545 -17.4238 26.0695 17.2749 -0.0 0.0 -0.0 8.79436 -26.1133 16.1683 -10.6712 6.42871 68.8832 0.228538 -6.45917 0.0128957 -69.0824 -6.42897 5.29308 -6.36578 1.08434 -47.3093 -0.0 0.0 -0.0 8.97599 28.3547 -16.3225 24.5725 -14.4136 -60.1112 0.184245 5.21505 -0.00839082 10.2322 -0.246598 1.28208 3.03931 -30.0728 -29.2726 0.0 0.0 0.0 -4.16465 27.1394 5.14192 1.39561 -0.0599808 -0.205755 23.3936 25.8703 -3.3238 -28.122 0.0 0.0 -0.0 0.0 -0.0 20.8763 30.8544 -4.39126 -25.5049 -0.189829 -3.87716 -1.9984 19.19 -0.331757 -26.2514 0.0 0.0 0.0 0.0 0.0 
339.215 736.029 -672.128 -179.519 -45.4053 179.442 -1.42282 0.64174 0.494217 -1.42289 0.608991 0.534051 -1.41703 0.466953 0.661842 -1.41719 0.565616 0.579792 -17.2207 16.0453 12.1852 -17.4384 24.1422 17.333 -0.0 0.0 -0.0 8.95623 -23.9827 16.7405 -11.3382 8.24889 69.8014 0.179474 -5.08072 0.00796269 -64.0178 -5.78623 5.20859 -6.70585 4.30385 -48.1259 -0.0 0.0 -0.0 9.61571 30.2457 -17.5083 25.5336 -14.7987 -59.6233 0.197076 5.576 -0.00959732 11.4437 -0.260529 1.43619 3.65162 -30.4433 -33.2794 0.0 0.0 0.0 -2.75673 28.5238 5.15357 -1.98235 0.0765315 0.294582 22.9247 26.5765 -3.27806 -27.0438 0.0 0.0 -0.0 0.0 -0.0 19.0283 22.0092 -0.834962 -24.3906 -0.217742 -3.70843 4.29278 26.3113 0.753982 -25.1956 0.0 0.0 0.0 0.0 0.0 
343.866 739.274 -671.126 -178.883 -44.197 -179.827 -1.36132 0.683331 0.55606 -1.36138 0.646563 0.598415 -1.35439 0.489211 0.732677 -1.35464 0.598781 0.646224 -14.5097 16.2956 10.6763 -14.6867 24.7912 15.3904 -0.0 0.0 -0.0 9.16838 -24.9232 17.1203 -12.5122 14.2874 71.8401 0.180245 -5.10242 0.00803112 -64.2412 -5.81443 5.21352 -7.39915 4.89197 -55.1565 -0.0 0.0 -0.0 9.32321 29.5437 -16.9487 26.1636 -10.3963 -61.5757 0.212039 5.99639 -0.0111058 9.72208 -0.239758 1.21728 3.35249 -30.3458 -31.3089 0.0 0.0 0.0 -0.952293 28.3794 3.84041 -2.72313 0.102504 0.405302 26.757 21.2422 -3.6516 -27.5096 0.0 0.0 -0.0 0.0 -0.0 19.0987 23.1347 -1.25213 -23.6504 -0.234465 -3.59608 7.39963 20.9862 1.2132 -21.4888 0.0 0.0 0.0 0.0 0.0 
358.793 734.637 -663.977 -179.086 -43.1551 179.347 -1.33749 0.693401 0.622338 -1.33751 0.652396 0.665199 -1.32964 0.47966 0.798769 -1.33003 0.599788 0.712996 -14.3144 17.7461 11.4883 -14.5242 27.0463 16.5902 -0.0 0.0 -0.0 9.33805 -23.7899 17.6077 -15.1452 15.8767 73.9381 0.18339 -5.19099 0.00831327 -62.3798 -5.58011 5.16908 -7.70153 7.81209 -55.6466 -0.0 0.0 -0.0 8.86539 29.4844 -15.9439 26.6126 -7.37868 -63.3293 0.188094 5.32336 -0.00874422 9.25262 -0.232953 1.1577 3.77803 -30.5528 -34.1341 0.0 0.0 0.0 0.109212 26.6018 3.858 -7.15531 0.227793 1.07379 31.9016 21.0286 -4.23316 -28.1112 0.0 0.0 -0.0 0.0 -0.0 18.1614 21.8164 0.233247 -24.8564 -0.206473 -3.77903 12.6388 24.1712 2.0948 -21.3869 0.0 0.0 0.0 0.0 0.0 
